<?xml version="1.0" standalone="no"?>
<!DOCTYPE svg PUBLIC "-//W3C//DTD SVG 20010904//EN"
 "http://www.w3.org/TR/2001/REC-SVG-20010904/DTD/svg10.dtd">
<svg version="1.0" xmlns="http://www.w3.org/2000/svg"
 width="387.000000pt" height="224.000000pt" viewBox="0 0 387.000000 224.000000"
 preserveAspectRatio="xMidYMid meet">

<g transform="translate(0.000000,224.000000) scale(0.100000,-0.100000)"
fill="#000000" stroke="none">
<path d="M0 1120 l0 -1120 1935 0 1935 0 0 1120 0 1120 -1935 0 -1935 0 0
-1120z m2058 355 c39 -88 126 -287 195 -443 69 -155 122 -284 118 -286 -18
-10 -119 -5 -129 6 -5 7 -27 55 -47 106 l-37 92 -171 -2 -171 -3 -34 -90 c-18
-49 -36 -93 -40 -97 -4 -4 -37 -9 -74 -12 -51 -3 -68 -1 -68 8 0 7 77 192 171
412 94 219 178 418 187 441 9 24 19 39 23 35 4 -4 39 -79 77 -167z"/>
<path d="M1924 1213 l-50 -128 111 -5 c60 -3 112 -4 114 -3 5 3 -112 263 -119
263 -4 0 -29 -57 -56 -127z"/>
</g>
</svg>
