<?xml version="1.0" standalone="no"?>
<!DOCTYPE svg PUBLIC "-//W3C//DTD SVG 20010904//EN"
 "http://www.w3.org/TR/2001/REC-SVG-20010904/DTD/svg10.dtd">
<svg version="1.0" xmlns="http://www.w3.org/2000/svg"
 width="474.000000pt" height="266.000000pt" viewBox="0 0 474.000000 266.000000"
 preserveAspectRatio="xMidYMid meet">

<g transform="translate(0.000000,266.000000) scale(0.100000,-0.100000)"
fill="#000000" stroke="none">
<path d="M2386 1802 c-3 -3 -6 -90 -6 -194 0 -125 -4 -188 -11 -188 -5 0 -27
10 -47 22 l-38 21 -132 -78 -133 -77 3 -151 3 -151 75 -46 c41 -25 100 -60
131 -77 l55 -31 117 67 c64 38 123 74 132 81 13 11 15 57 13 368 l-3 355 -77
42 c-42 24 -79 40 -82 37z m-59 -564 c49 -28 53 -35 53 -85 0 -39 -4 -45 -40
-68 -50 -31 -66 -31 -113 0 -34 24 -37 29 -37 74 0 47 2 50 43 75 52 31 48 31
94 4z"/>
<path d="M745 1405 c-49 -30 -105 -63 -123 -75 l-32 -20 5 -192 c3 -105 7
-193 9 -195 5 -5 149 78 158 91 4 6 8 54 8 108 l0 96 36 21 c45 27 63 26 105
-2 l34 -23 3 -101 3 -102 79 -45 c43 -25 82 -46 85 -46 3 0 4 91 3 201 l-3
202 -120 68 c-66 38 -129 69 -140 68 -11 0 -60 -25 -110 -54z"/>
<path d="M2860 1387 l-125 -72 0 -154 0 -154 128 -74 128 -74 63 32 c36 18 74
40 86 49 25 19 29 16 -168 129 l-73 42 3 52 c3 50 5 53 47 76 l44 24 44 -23
c23 -12 43 -26 44 -29 0 -3 2 -22 2 -41 1 -22 7 -36 17 -37 8 -2 47 16 85 40
l70 42 0 50 0 50 -125 72 c-68 40 -129 73 -135 73 -5 0 -66 -33 -135 -73z"/>
</g>
</svg>
