<?xml version="1.0" standalone="no"?>
<!DOCTYPE svg PUBLIC "-//W3C//DTD SVG 20010904//EN"
 "http://www.w3.org/TR/2001/REC-SVG-20010904/DTD/svg10.dtd">
<svg version="1.0" xmlns="http://www.w3.org/2000/svg"
 width="364.000000pt" height="234.000000pt" viewBox="0 0 364.000000 234.000000"
 preserveAspectRatio="xMidYMid meet">

<g transform="translate(0.000000,234.000000) scale(0.100000,-0.100000)"
fill="#000000" stroke="none">
<path d="M1706 1812 c3 -74 6 -146 8 -160 2 -15 1 -21 -1 -14 -2 6 -9 12 -14
12 -5 0 -10 12 -10 28 -1 22 -3 23 -6 5 -3 -17 -10 -21 -31 -19 -15 2 -28 10
-30 20 -4 20 -22 21 -22 1 0 -11 -11 -15 -40 -15 -29 0 -40 4 -40 15 0 11 -11
15 -40 15 -22 0 -40 -5 -40 -10 0 -6 -32 -9 -82 -8 -46 1 -138 -1 -205 -5
-110 -5 -121 -4 -116 10 4 11 2 14 -5 9 -7 -4 -10 -27 -7 -59 3 -38 1 -47 -6
-34 -6 9 -8 26 -4 36 3 11 1 22 -4 25 -27 17 -1 -77 36 -133 15 -22 21 -41 17
-54 -4 -12 -7 -32 -8 -46 -1 -14 -5 -32 -9 -38 -5 -7 -4 -13 2 -13 5 0 14 8
20 17 5 10 12 15 15 13 10 -10 -12 -33 -33 -35 -11 -1 -29 -9 -39 -18 -17 -16
-22 -16 -53 -3 -27 12 -30 15 -12 16 24 0 43 26 43 60 0 28 -29 72 -43 63 -6
-3 -7 -1 -3 5 4 6 0 22 -7 34 -24 38 -28 90 -9 124 30 55 76 98 130 123 28 14
50 26 49 28 -7 7 -126 -50 -121 -58 3 -5 -2 -9 -10 -9 -9 0 -16 -5 -16 -11 0
-5 -4 -8 -8 -5 -4 2 -14 1 -22 -5 -11 -6 -12 -9 -2 -9 10 0 9 -8 -5 -30 -14
-25 -19 -27 -26 -14 -8 14 -11 13 -24 -5 -8 -12 -12 -25 -9 -29 3 -5 -1 -9 -8
-9 -8 0 -11 8 -8 21 3 14 1 18 -6 11 -15 -15 -25 -55 -14 -55 6 0 8 -9 5 -19
-6 -22 4 -44 55 -121 20 -30 38 -57 39 -59 2 -2 6 -2 9 2 3 3 -3 16 -15 28
-23 25 -27 39 -11 39 6 0 10 -5 10 -12 0 -6 3 -8 6 -5 9 9 -16 38 -27 31 -5
-3 -9 -1 -9 5 0 5 4 12 10 16 13 8 42 -39 34 -59 -4 -10 0 -18 10 -22 14 -5
14 -9 4 -22 -11 -14 -10 -15 7 -8 15 5 17 4 9 -4 -9 -9 -19 -8 -42 4 -16 8
-33 12 -37 8 -5 -4 -5 -2 -2 4 3 6 -12 28 -35 50 -22 21 -38 34 -34 27 3 -6 2
-14 -3 -18 -6 -3 -8 4 -6 16 3 12 -6 35 -21 55 -33 43 -41 101 -20 142 9 17
46 57 83 89 72 63 168 154 119 113 -16 -14 -36 -31 -44 -38 -8 -7 -20 -11 -27
-8 -7 2 -12 -1 -11 -8 1 -15 -123 -118 -135 -111 -4 3 -6 -6 -3 -20 3 -19 1
-23 -12 -18 -14 5 -15 3 -5 -15 17 -31 13 -34 -11 -10 -19 19 -22 20 -33 5 -7
-10 -20 -17 -29 -17 -20 0 -20 -7 -1 -26 8 -9 15 -28 15 -43 0 -15 6 -33 12
-40 11 -11 8 -13 -14 -9 -16 3 -28 2 -29 -1 0 -3 -2 -16 -5 -29 -3 -19 0 -23
18 -20 15 2 26 -5 35 -22 11 -22 10 -25 -7 -28 -11 -2 -20 -8 -20 -14 0 -5 -7
-8 -15 -4 -8 3 -19 -2 -24 -11 -8 -14 -12 -15 -25 -4 -11 9 -16 10 -16 2 0 -6
6 -11 13 -11 8 0 7 -4 -3 -10 -20 -13 -33 -12 -24 2 5 7 3 8 -5 3 -7 -4 -9
-11 -4 -15 4 -5 40 2 78 15 39 14 80 25 93 25 12 0 22 5 22 10 0 15 17 12 24
-5 4 -10 -6 -18 -37 -26 -23 -6 -50 -17 -60 -24 -18 -13 -18 -13 0 -18 70 -20
339 -12 458 13 25 6 44 5 52 -1 14 -12 6 -42 -9 -33 -6 4 -5 10 3 15 20 13 4
11 -26 -3 -14 -6 -25 -14 -25 -18 0 -4 -8 -6 -17 -6 -10 1 -71 -5 -137 -13
-71 -8 -161 -11 -226 -8 -102 5 -153 -2 -115 -17 26 -9 42 -7 25 4 -12 8 -10
10 8 10 33 0 22 -22 -15 -32 -31 -8 -31 -8 -17 -38 9 -16 13 -34 9 -40 -3 -5
-1 -10 6 -10 7 0 9 10 6 30 -5 23 -1 33 20 50 14 11 35 20 46 20 20 0 20 0 2
-14 -18 -13 -18 -14 3 -25 26 -14 230 -15 302 -1 43 8 58 7 77 -5 17 -12 28
-13 42 -5 25 13 41 13 21 0 -17 -11 -1 -14 24 -4 8 3 12 13 9 22 -4 14 -3 14
5 3 8 -11 12 -10 23 8 8 11 17 21 22 21 4 0 1 -11 -8 -23 -19 -29 -61 -50 -86
-42 -21 7 -25 -5 -7 -23 8 -8 9 -12 1 -12 -6 0 -13 5 -15 11 -3 8 -35 6 -108
-6 -109 -19 -278 -17 -332 4 -20 8 -28 7 -32 -4 -3 -8 -1 -17 4 -20 4 -3 11 1
13 7 3 8 6 6 6 -4 1 -10 7 -18 14 -18 6 0 4 -5 -5 -11 -10 -5 -18 -17 -18 -25
0 -9 -5 -12 -11 -8 -6 3 -15 1 -19 -6 -5 -8 -10 -9 -14 -1 -4 6 6 19 24 29 30
19 30 19 8 29 -34 15 -48 5 -48 -32 0 -22 6 -35 18 -40 15 -7 13 -9 -8 -15
-14 -4 -35 -3 -48 2 -13 4 -21 4 -18 -1 3 -5 -12 -16 -34 -25 -22 -9 -40 -18
-40 -21 0 -3 17 2 37 11 21 8 63 16 94 17 46 2 53 4 42 15 -24 25 -10 31 20 8
22 -17 12 -49 -13 -41 -17 5 -37 -10 -39 -30 -1 -10 -9 -11 -53 -6 -22 2 -22
3 -3 12 19 8 19 9 1 6 -40 -5 -26 -25 26 -38 83 -22 521 -18 613 4 76 19 89
30 73 61 -9 17 -8 19 3 8 17 -16 32 -16 23 1 -4 6 5 1 19 -12 19 -17 24 -28
17 -36 -5 -7 -7 -15 -3 -19 11 -11 -20 -26 -32 -16 -6 5 -21 6 -34 3 -17 -4
-19 -8 -10 -14 8 -5 17 -3 22 4 6 9 7 8 5 -3 -5 -16 -70 -33 -78 -20 -3 5 -44
2 -90 -7 -63 -13 -140 -17 -297 -17 -117 1 -213 -3 -213 -7 0 -28 382 -31 535
-4 114 20 201 49 209 70 6 17 26 20 26 5 0 -6 -9 -18 -20 -27 -11 -10 -20 -21
-20 -26 0 -5 7 -4 15 3 9 7 17 11 19 9 8 -8 -80 -68 -109 -74 -20 -4 -11 2 24
19 30 15 51 29 48 32 -3 3 -18 -1 -34 -10 -80 -41 -392 -64 -583 -43 -41 5
-72 6 -69 3 3 -3 18 -7 32 -8 16 -1 27 -8 27 -16 0 -12 -3 -12 -15 -2 -23 19
-45 4 -45 -30 0 -17 -5 -40 -10 -51 -8 -14 -7 -19 2 -19 9 0 9 -3 -2 -10 -12
-8 -12 -10 5 -10 11 0 30 -3 42 -6 18 -5 21 -3 17 18 -2 12 -1 16 2 8 4 -8 12
-18 17 -22 18 -11 -36 -19 -68 -10 -21 6 -31 17 -37 40 -5 17 -13 34 -20 38
-7 5 -9 -1 -4 -20 3 -14 2 -34 -2 -44 -16 -30 -24 -74 -13 -67 7 3 8 0 5 -9
-11 -29 -21 -7 -23 50 0 32 -4 60 -7 63 -3 3 -4 -27 -3 -67 1 -39 6 -72 11
-72 4 0 8 -5 8 -11 0 -5 -4 -7 -10 -4 -6 4 -10 -36 -10 -112 0 -110 -2 -121
-25 -156 -14 -20 -31 -37 -37 -37 -6 0 -8 -3 -5 -7 4 -3 18 4 32 17 14 13 25
19 25 13 0 -20 -33 -38 -71 -38 -20 0 -37 2 -37 5 1 20 -5 21 -24 4 -23 -19
-23 -19 -5 2 18 21 23 39 9 30 -5 -3 -9 1 -9 9 0 10 4 11 11 6 13 -11 38 5 54
36 8 15 11 85 10 220 -1 133 -4 172 -7 118 -5 -67 -9 -80 -23 -81 -10 -1 -27
-2 -38 -3 -11 0 -20 -8 -20 -16 0 -13 -3 -13 -21 -3 -17 10 -23 10 -26 1 -3
-7 -17 -13 -31 -13 -27 0 -70 -42 -85 -82 -3 -10 -11 -18 -17 -18 -5 0 -20
-10 -32 -22 -14 -14 -23 -18 -26 -10 -6 19 -30 14 -42 -8 -6 -11 -16 -20 -23
-20 -7 0 -18 -14 -24 -30 -7 -20 -16 -28 -26 -24 -23 8 -37 -70 -37 -210 0
-68 3 -131 6 -140 7 -19 30 -21 37 -3 4 9 8 8 16 -3 7 -10 11 -11 11 -2 0 10
175 12 860 12 554 0 860 -4 860 -10 0 -6 11 -10 24 -10 18 0 25 7 29 30 4 16
4 38 2 47 -3 10 1 5 8 -11 15 -30 31 -22 21 11 -5 17 -5 17 6 1 8 -13 8 -23
-1 -39 -9 -17 -13 -19 -20 -8 -5 8 -9 10 -9 4 0 -14 18 -40 23 -35 10 11 49
94 77 166 98 245 104 494 21 780 -45 158 -129 367 -143 358 -4 -3 -5 2 -2 10
3 8 -3 31 -14 53 -26 50 -78 221 -92 303 -7 36 -16 112 -20 170 -9 104 -9 104
-4 -28z m-443 -169 c-13 -2 -33 -2 -45 0 -13 2 -3 4 22 4 25 0 35 -2 23 -4z
m160 0 c-13 -2 -33 -2 -45 0 -13 2 -3 4 22 4 25 0 35 -2 23 -4z m274 -40 c-3
-10 -5 -4 -5 12 0 17 2 24 5 18 2 -7 2 -21 0 -30z m-783 -63 c6 -13 5 -13 -6
0 -16 18 -48 22 -48 6 0 -6 -5 -4 -10 4 -5 8 -10 20 -10 25 0 6 5 3 10 -5 8
-12 10 -10 11 10 1 17 3 19 6 8 7 -28 23 -21 24 10 1 24 2 23 8 -8 4 -20 11
-42 15 -50z m823 28 c-3 -8 -6 -5 -6 6 -1 11 2 17 5 13 3 -3 4 -12 1 -19z
m-848 -55 c-8 -9 -16 -10 -22 -4 -13 13 0 31 19 24 11 -4 12 -8 3 -20z m224
12 c-3 -9 -8 -14 -10 -11 -3 3 -2 9 2 15 9 16 15 13 8 -4z m-324 -34 c0 -10
-2 -11 -6 -3 -2 6 -11 12 -19 12 -15 0 -19 12 -7 23 9 10 33 -13 32 -32z m293
17 c-7 -7 -12 -8 -12 -2 0 14 12 26 19 19 2 -3 -1 -11 -7 -17z m676 -23 c-3
-3 -9 2 -12 12 -6 14 -5 15 5 6 7 -7 10 -15 7 -18z m-788 -25 c6 -11 8 -20 6
-20 -3 0 -10 9 -16 20 -6 11 -8 20 -6 20 3 0 10 -9 16 -20z m-235 0 c-3 -5
-12 -10 -18 -10 -7 0 -6 4 3 10 19 12 23 12 15 0z m125 -35 c10 -15 7 -14 -13
4 -15 14 -27 29 -27 33 0 10 16 -5 40 -37z m223 20 c-7 -21 -12 -19 -10 4 0
11 5 18 9 15 4 -3 5 -11 1 -19z m246 6 c11 -7 9 -10 -8 -16 -13 -4 -25 -4 -28
-1 -4 3 2 6 13 7 18 0 18 1 -1 9 -13 6 -15 9 -5 9 8 0 21 -3 29 -8z m-492 -51
c-1 -10 -5 -16 -10 -13 -5 3 -13 0 -17 -7 -5 -8 -10 -9 -14 -2 -3 6 3 13 14
17 28 9 25 28 -2 20 -16 -4 -19 -4 -9 3 8 6 10 15 6 23 -5 8 1 6 13 -4 11 -11
20 -27 19 -37z m433 36 c0 -3 -4 -8 -10 -11 -5 -3 -10 -1 -10 4 0 6 5 11 10
11 6 0 10 -2 10 -4z m520 -31 c0 -5 -5 -3 -10 5 -8 12 -10 12 -10 1 0 -8 -2
-12 -5 -9 -3 3 -2 13 1 22 5 14 9 15 15 4 5 -7 9 -17 9 -23z m-447 12 l-23
-12 23 -15 c12 -8 26 -13 31 -12 10 3 26 -17 26 -32 0 -6 -7 -1 -15 10 -13 17
-14 16 -8 -18 9 -62 -43 -123 -137 -158 -19 -7 -43 -20 -53 -28 -9 -8 -20 -12
-24 -9 -3 4 -1 7 5 7 6 0 9 6 7 13 -3 7 9 18 27 26 43 19 105 82 113 114 16
63 -81 115 -117 63 -5 -8 -8 -7 -8 1 0 31 44 50 103 45 10 -1 26 2 35 8 10 5
22 9 27 9 6 0 0 -5 -12 -12z m-242 -30 c-10 -9 -11 -8 -5 6 3 10 9 15 12 12 3
-3 0 -11 -7 -18z m693 -8 c-3 -5 0 -18 6 -30 7 -11 9 -23 6 -26 -3 -4 -11 8
-17 25 -6 18 -16 29 -22 25 -5 -3 -7 -2 -4 4 3 5 13 10 21 10 8 0 13 -4 10 -8z
m-1068 -24 c-11 -8 -27 -15 -35 -15 -10 1 -7 6 9 15 33 19 50 18 26 0z m383
11 c-2 -2 -17 -6 -34 -10 -22 -5 -26 -4 -15 4 14 9 59 15 49 6z m-232 -12 c-3
-3 -12 -4 -19 -1 -8 3 -5 6 6 6 11 1 17 -2 13 -5z m417 -10 c3 -8 2 -12 -4 -9
-6 3 -10 10 -10 16 0 14 7 11 14 -7z m-521 -1 c-7 -2 -19 -2 -25 0 -7 3 -2 5
12 5 14 0 19 -2 13 -5z m184 1 c-3 -3 -12 -4 -19 -1 -8 3 -5 6 6 6 11 1 17 -2
13 -5z m832 -39 c0 -5 -4 -3 -9 5 -5 8 -9 22 -9 30 0 16 17 -16 18 -35z m-400
-51 c-10 -13 -10 -17 2 -25 11 -7 11 -9 -3 -9 -21 0 -22 3 -5 48 8 23 13 29
15 18 2 -9 -2 -24 -9 -32z m-339 26 c0 -5 -21 -9 -47 -8 l-48 1 45 7 c25 4 46
8 48 8 1 1 2 -2 2 -8z m195 0 c-3 -5 -11 -10 -16 -10 -6 0 -7 5 -4 10 3 6 11
10 16 10 6 0 7 -4 4 -10z m582 -22 c-3 -8 -6 -5 -6 6 -1 11 2 17 5 13 3 -3 4
-12 1 -19z m-937 3 c0 -5 -9 -7 -20 -4 -11 3 -20 7 -20 9 0 2 9 4 20 4 11 0
20 -4 20 -9z m224 -20 c2 -3 -20 -6 -50 -7 -46 0 -50 1 -31 11 22 11 74 9 81
-4z m-259 -12 c13 -5 2 -8 -35 -7 -30 0 -46 3 -36 5 15 4 16 7 5 14 -15 10 31
2 66 -12z m102 15 c-3 -3 -12 -4 -19 -1 -8 3 -5 6 6 6 11 1 17 -2 13 -5z m-10
-20 c-3 -3 -12 -4 -19 -1 -8 3 -5 6 6 6 11 1 17 -2 13 -5z m413 -4 c0 -5 -5
-10 -11 -10 -5 0 -7 5 -4 10 3 6 8 10 11 10 2 0 4 -4 4 -10z m507 -19 c1 -14
-1 -19 -4 -11 -3 8 -10 20 -14 26 -5 6 -4 11 4 11 7 0 13 -12 14 -26z m20 -33
c-3 -8 -6 -5 -6 6 -1 11 2 17 5 13 3 -3 4 -12 1 -19z m-633 1 c-4 -8 1 -9 17
-5 13 3 18 3 11 0 -6 -3 -10 -10 -6 -15 3 -5 -4 -5 -18 0 -15 5 -31 5 -41 0
-9 -6 -17 -6 -17 -1 0 6 23 19 58 31 2 1 0 -4 -4 -10z m-119 -16 c5 -14 3 -15
-6 -6 -6 6 -18 9 -25 6 -8 -3 -14 0 -14 6 0 18 37 13 45 -6z m-308 -19 c-3 -3
-12 -4 -19 -1 -8 3 -5 6 6 6 11 1 17 -2 13 -5z m413 2 c0 -3 -4 -8 -10 -11 -5
-3 -10 -1 -10 4 0 6 5 11 10 11 6 0 10 -2 10 -4z m-485 -25 c-5 -17 2 -20 77
-26 47 -4 111 -2 149 4 58 10 69 9 104 -9 l38 -20 -36 -15 c-69 -29 -177 -39
-268 -27 -125 18 -167 59 -96 95 41 20 39 20 32 -2z m315 9 c-21 -14 5 -13 33
1 20 9 20 9 5 -4 -10 -8 -14 -18 -10 -22 4 -5 -2 -5 -13 0 -11 4 -31 10 -45
13 -23 5 -23 6 -5 13 11 4 27 8 35 8 13 1 13 0 0 -9z m-237 -17 c-7 -2 -21 -2
-30 0 -10 3 -4 5 12 5 17 0 24 -2 18 -5z m47 -3 c0 -5 -7 -7 -15 -4 -8 4 -15
8 -15 10 0 2 7 4 15 4 8 0 15 -4 15 -10z m1045 -9 c3 -5 1 -12 -5 -16 -5 -3
-10 1 -10 9 0 18 6 21 15 7z m-65 -21 c0 -5 -5 -10 -11 -10 -5 0 -7 5 -4 10 3
6 8 10 11 10 2 0 4 -4 4 -10z m-504 -32 c0 -10 -1 -18 -1 -18 0 0 -8 9 -17 19
-16 18 -15 20 1 18 9 0 17 -9 17 -19z m-239 -4 c-3 -3 -12 -4 -19 -1 -8 3 -5
6 6 6 11 1 17 -2 13 -5z m-382 -14 c3 -5 -1 -10 -9 -10 -9 0 -16 5 -16 10 0 6
4 10 9 10 6 0 13 -4 16 -10z m364 -3 c11 3 18 -1 18 -10 0 -12 -6 -13 -29 -5
-16 6 -25 14 -21 21 5 8 8 8 10 0 2 -6 12 -9 22 -6z m-9 -32 c0 -1 -11 -2 -24
-1 -13 0 -22 4 -19 9 2 4 -1 7 -6 7 -6 0 -11 4 -11 9 0 5 14 3 30 -5 17 -9 30
-17 30 -19z m135 25 c-3 -5 -10 -10 -16 -10 -5 0 -9 5 -9 10 0 6 7 10 16 10 8
0 12 -4 9 -10z m702 -12 c-3 -8 -6 -5 -6 6 -1 11 2 17 5 13 3 -3 4 -12 1 -19z
m-917 -4 c0 -2 -9 -4 -21 -4 -11 0 -18 4 -14 10 5 8 35 3 35 -6z m260 6 c-8
-5 -19 -10 -25 -10 -5 0 -3 5 5 10 8 5 20 10 25 10 6 0 3 -5 -5 -10z m-546 -9
c-8 -8 -43 -8 -38 0 2 4 13 7 24 6 10 -1 17 -3 14 -6z m35 -37 c10 -9 -35 -3
-49 6 -11 8 -7 9 15 4 17 -4 32 -8 34 -10z m136 6 c-3 -5 -11 -10 -16 -10 -6
0 -7 5 -4 10 3 6 11 10 16 10 6 0 7 -4 4 -10z m-52 -7 c-7 -2 -21 -2 -30 0
-10 3 -4 5 12 5 17 0 24 -2 18 -5z m224 1 c-3 -3 -12 -4 -19 -1 -8 3 -5 6 6 6
11 1 17 -2 13 -5z m336 -9 c-3 -9 -8 -14 -10 -11 -3 3 -2 9 2 15 9 16 15 13 8
-4z m537 -32 c-11 -17 -11 -17 -6 0 3 10 7 26 7 35 1 15 2 15 6 0 2 -10 -1
-25 -7 -35z m-860 -23 c0 -5 -21 -9 -47 -8 l-48 1 45 7 c25 4 46 8 48 8 1 1 2
-2 2 -8z m43 3 c-7 -2 -19 -2 -25 0 -7 3 -2 5 12 5 14 0 19 -2 13 -5z m-376
-9 c-3 -3 -12 -4 -19 -1 -8 3 -5 6 6 6 11 1 17 -2 13 -5z m595 -41 c-6 -2 -9
-10 -5 -16 4 -7 0 -8 -11 -4 -10 4 -21 7 -24 8 -10 1 31 18 43 18 6 -1 4 -3
-3 -6z m645 -15 c-3 -8 -6 -5 -6 6 -1 11 2 17 5 13 3 -3 4 -12 1 -19z m-814 5
c-7 -2 -19 -2 -25 0 -7 3 -2 5 12 5 14 0 19 -2 13 -5z m-416 -119 c-3 -3 -12
-4 -19 -1 -8 3 -5 6 6 6 11 1 17 -2 13 -5z m337 -9 c-4 -8 -10 -12 -15 -9 -14
8 -10 24 6 24 9 0 12 -6 9 -15z m299 -2 c-7 -2 -19 -2 -25 0 -7 3 -2 5 12 5
14 0 19 -2 13 -5z m-123 -13 c0 -5 -12 -10 -26 -10 -14 0 -23 4 -19 10 3 6 15
10 26 10 10 0 19 -4 19 -10z m-105 -21 c-40 -7 -55 -4 -55 9 0 4 21 5 48 3
l47 -5 -40 -7z m-390 -14 c19 -8 39 -25 44 -37 9 -24 20 -287 11 -265 -3 7
-11 13 -19 15 -21 5 -63 -7 -57 -16 2 -4 -7 -9 -22 -10 -26 -1 -26 -1 -8 13
11 8 26 15 33 15 7 0 13 4 13 9 0 6 -16 3 -35 -5 -19 -7 -45 -14 -59 -14 -13
0 -26 -3 -29 -7 -2 -5 -2 -3 -1 4 3 12 -23 26 -35 19 -8 -5 -14 24 -14 78 -1
51 36 82 110 92 41 5 53 10 53 24 0 29 -26 42 -72 38 -24 -3 -50 -6 -58 -9
-10 -3 -16 5 -18 23 -3 24 1 28 40 36 63 14 85 14 123 -3z m120 5 c32 0 33 -2
50 -65 15 -52 21 -63 31 -54 11 9 14 8 14 -4 0 -8 -6 -18 -12 -21 -9 -4 -10
-8 -2 -11 6 -3 9 -18 7 -33 -2 -15 6 -2 17 28 11 30 23 78 27 107 l6 53 38 0
c22 0 39 -3 39 -6 0 -16 -42 -166 -60 -212 -11 -29 -18 -57 -15 -63 3 -5 1
-17 -5 -26 -10 -16 -10 -15 -5 4 5 18 2 20 -15 16 -15 -4 -18 -9 -10 -18 12
-14 -6 -25 -28 -18 -10 4 -10 8 0 21 11 13 10 15 -9 10 -15 -4 -24 -1 -27 11
-30 104 -88 281 -94 284 -4 2 -1 2 6 0 8 -1 29 -3 47 -3z m429 -1 c-2 -4 3
-12 10 -18 10 -8 16 -9 21 -1 3 5 1 10 -5 10 -6 0 -9 4 -6 8 8 13 66 1 66 -13
0 -8 -12 -15 -27 -17 l-26 -3 2 -127 2 -128 -36 0 c-20 0 -34 4 -31 9 3 4 -14
1 -37 -7 -93 -33 -163 30 -125 112 16 36 51 56 108 63 38 4 50 10 50 22 0 21
-19 41 -39 41 -13 -1 -12 -3 3 -15 18 -14 17 -14 -12 -12 -23 1 -28 5 -20 15
8 9 5 12 -11 12 -15 0 -20 -4 -15 -12 6 -10 4 -10 -7 -2 -8 6 -25 8 -39 3 -14
-4 -19 -7 -12 -8 16 -1 16 -17 -1 -24 -7 -3 -13 3 -13 12 -1 9 -4 24 -9 34 -4
10 -3 17 5 17 6 0 8 -4 5 -10 -3 -5 -1 -10 4 -10 6 0 11 9 11 19 0 14 11 22
38 29 41 11 153 12 146 1z m-364 -39 c0 -13 -1 -13 -10 0 -5 8 -10 22 -10 30
0 13 1 13 10 0 5 -8 10 -22 10 -30z m-117 10 c3 -11 1 -18 -4 -14 -5 3 -9 12
-9 20 0 20 7 17 13 -6z m177 1 c0 -6 -4 -13 -10 -16 -5 -3 -10 1 -10 9 0 9 5
16 10 16 6 0 10 -4 10 -9z m420 5 c0 -3 -4 -8 -10 -11 -5 -3 -10 -1 -10 4 0 6
5 11 10 11 6 0 10 -2 10 -4z m587 -53 c-3 -10 -5 -4 -5 12 0 17 2 24 5 18 2
-7 2 -21 0 -30z m-627 12 c0 -9 -6 -12 -15 -9 -8 4 -12 10 -9 15 8 14 24 10
24 -6z m-710 -5 c-12 -7 -10 -11 10 -19 14 -5 18 -10 10 -10 -19 0 -52 24 -43
32 3 4 13 7 22 7 14 0 14 -2 1 -10z m49 -4 c9 -11 9 -16 -1 -22 -7 -4 -10 -4
-6 1 4 4 3 14 -3 22 -6 7 -9 13 -6 13 2 0 10 -6 16 -14z m-106 -21 l28 -7 -23
-16 c-34 -24 -48 -39 -49 -54 0 -11 -2 -11 -6 0 -3 8 7 27 23 43 25 26 23 44
-3 18 -7 -7 -10 -3 -10 16 0 15 2 23 6 17 3 -6 19 -14 34 -17z m551 16 c3 -5
-1 -12 -10 -15 -8 -3 -12 -10 -9 -16 3 -5 2 -10 -4 -10 -17 0 -21 18 -5 24 8
3 12 10 9 16 -3 5 -2 10 4 10 5 0 12 -4 15 -9z m69 -18 c-7 -2 -21 -2 -30 0
-10 3 -4 5 12 5 17 0 24 -2 18 -5z m-388 -13 c3 -5 -1 -10 -9 -10 -9 0 -16 5
-16 10 0 6 4 10 9 10 6 0 13 -4 16 -10z m245 -22 c0 6 7 12 16 12 9 0 14 -6
12 -12 -6 -18 -40 -16 -45 2 -4 13 -3 13 6 0 7 -10 11 -11 11 -2z m-230 -7 c0
-6 -4 -13 -10 -16 -5 -3 -10 1 -10 9 0 9 5 16 10 16 6 0 10 -4 10 -9z m13 -72
c-6 -6 -10 1 -10 23 0 30 1 30 10 10 7 -15 7 -26 0 -33z m494 14 c-3 -10 -5
-4 -5 12 0 17 2 24 5 18 2 -7 2 -21 0 -30z m-300 -31 c-8 -9 -17 -24 -20 -32
-2 -8 -5 0 -4 18 0 19 3 28 7 21 5 -8 10 -4 15 12 5 14 10 19 13 11 2 -7 -3
-21 -11 -30z m-510 -14 c-3 -8 -6 -5 -6 6 -1 11 2 17 5 13 3 -3 4 -12 1 -19z
m323 2 c0 -5 -2 -10 -4 -10 -3 0 -8 5 -11 10 -3 6 -1 10 4 10 6 0 11 -4 11
-10z m-16 -18 c3 -5 -1 -9 -9 -9 -8 0 -12 4 -9 9 3 4 7 8 9 8 2 0 6 -4 9 -8z
m-452 -24 c-7 -7 -12 -8 -12 -2 0 6 3 14 7 17 3 4 9 5 12 2 2 -3 -1 -11 -7
-17z m493 2 c7 -23 -1 -40 -18 -40 -7 0 -6 4 3 10 12 8 13 13 2 30 -7 11 -8
20 -3 20 5 0 12 -9 16 -20z m-466 -24 c-13 -29 -32 -36 -22 -8 8 22 25 44 30
39 2 -3 -2 -16 -8 -31z m126 23 c-4 -6 0 -16 9 -22 11 -8 13 -17 6 -27 -5 -8
-12 -11 -17 -7 -4 5 -1 12 7 17 13 8 12 10 -2 10 -11 0 -18 8 -18 20 0 11 5
20 11 20 5 0 7 -5 4 -11z m1422 -11 c-3 -8 -6 -5 -6 6 -1 11 2 17 5 13 3 -3 4
-12 1 -19z m-707 -18 c0 -5 -7 -7 -15 -4 -8 4 -12 10 -9 15 6 11 24 2 24 -11z
m-144 -2 c-10 -6 -22 -6 -26 -2 -5 5 3 10 18 11 22 1 24 0 8 -9z m101 -4 c-3
-3 -12 -4 -19 -1 -8 3 -5 6 6 6 11 1 17 -2 13 -5z m739 -31 c-4 -11 -15 -29
-27 -41 -11 -12 -15 -22 -9 -22 14 0 13 -27 -2 -36 -7 -4 -10 -4 -6 1 4 4 3
14 -3 21 -8 10 -4 22 15 47 14 19 26 40 26 47 0 7 3 11 6 7 3 -3 3 -14 0 -24z
m-53 -148 c-3 -9 -8 -14 -10 -11 -3 3 -2 9 2 15 9 16 15 13 8 -4z"/>
<path d="M676 484 c-46 -45 20 -92 72 -51 6 5 12 22 12 38 0 26 -3 29 -34 29
-19 0 -42 -7 -50 -16z m22 -11 c-9 -10 -13 -24 -10 -32 3 -8 0 -11 -7 -7 -14
9 -14 29 1 44 19 19 33 14 16 -5z m51 -16 c-2 -1 -13 -9 -24 -17 -19 -14 -19
-14 -6 3 7 9 18 17 24 17 6 0 8 -1 6 -3z"/>
<path d="M1206 484 c-28 -27 -15 -64 21 -64 41 0 63 18 63 50 0 27 -3 30 -34
30 -19 0 -42 -7 -50 -16z m64 -10 c0 -15 -10 -17 -34 -8 -24 9 -19 22 9 22 15
0 25 -6 25 -14z m-17 -37 c-5 -8 -8 -8 -10 0 -3 7 -10 10 -17 7 -8 -3 -16 2
-19 10 -5 12 -1 13 24 4 17 -6 26 -14 22 -21z"/>
<path d="M1029 1853 c-13 -16 -12 -17 4 -4 9 7 17 15 17 17 0 8 -8 3 -21 -13z"/>
<path d="M914 1738 l-19 -23 23 19 c21 18 27 26 19 26 -2 0 -12 -10 -23 -22z"/>
<path d="M1089 1755 c-1 -3 -2 -11 -3 -17 -1 -7 -9 -12 -18 -10 -9 1 -20 -3
-24 -9 -4 -8 -3 -9 5 -5 6 4 19 2 27 -5 8 -7 14 -8 13 -3 -1 5 0 11 1 14 5 13
8 40 4 40 -2 0 -5 -2 -5 -5z"/>
<path d="M863 1690 c-7 -10 -9 -21 -4 -24 5 -3 12 4 15 17 6 20 7 21 20 5 7
-10 16 -15 19 -11 10 10 8 25 -2 18 -5 -3 -12 -1 -16 5 -9 15 -19 12 -32 -10z"/>
<path d="M666 1445 c4 -8 8 -15 10 -15 2 0 4 7 4 15 0 8 -4 15 -10 15 -5 0 -7
-7 -4 -15z"/>
<path d="M605 1440 c-3 -5 -1 -10 4 -10 6 0 11 5 11 10 0 6 -2 10 -4 10 -3 0
-8 -4 -11 -10z"/>
<path d="M1010 1385 c-19 -19 -30 -35 -24 -35 12 1 69 59 62 65 -2 3 -20 -11
-38 -30z"/>
<path d="M588 1293 c7 -3 16 -2 19 1 4 3 -2 6 -13 5 -11 0 -14 -3 -6 -6z"/>
<path d="M1323 1007 c3 -9 2 -19 -4 -22 -11 -7 -2 -25 12 -25 6 0 7 5 3 11 -3
6 -2 14 4 18 6 4 4 12 -6 21 -14 13 -15 12 -9 -3z"/>
<path d="M608 983 c7 -3 16 -2 19 1 4 3 -2 6 -13 5 -11 0 -14 -3 -6 -6z"/>
<path d="M565 900 c28 -12 45 -12 45 0 0 6 -15 10 -32 9 -28 0 -30 -2 -13 -9z"/>
<path d="M604 858 c-10 -15 1 -19 26 -10 l24 9 -22 5 c-12 4 -25 2 -28 -4z"/>
<path d="M625 830 c4 -6 11 -8 16 -5 14 9 11 15 -7 15 -8 0 -12 -5 -9 -10z"/>
<path d="M3341 753 c-40 -42 -122 -82 -171 -84 -62 -2 -85 -12 -86 -37 0 -17
3 -21 15 -17 9 4 41 12 72 19 84 20 140 55 186 114 34 45 25 48 -16 5z"/>
<path d="M500 768 c0 -11 32 -10 50 2 11 7 6 9 -17 7 -18 -1 -33 -5 -33 -9z"/>
<path d="M3014 635 c-4 -9 -2 -21 4 -27 15 -15 44 -1 40 19 -4 23 -36 29 -44
8z"/>
<path d="M2425 548 c-27 -15 -35 -28 -35 -59 0 -31 18 -49 74 -69 29 -11 41
-21 41 -35 0 -17 -6 -20 -40 -19 -22 1 -50 5 -62 9 -19 6 -23 4 -23 -13 0 -41
109 -56 154 -21 50 39 30 88 -49 118 -27 10 -51 26 -53 35 -4 21 42 32 74 17
28 -12 44 -7 44 13 0 30 -86 46 -125 24z"/>
<path d="M2587 546 c-3 -7 -5 -76 -4 -152 2 -136 2 -139 25 -142 20 -3 22 0
22 47 0 54 4 59 34 36 27 -20 86 -19 112 3 31 24 44 55 44 101 0 52 -15 84
-50 104 -37 22 -68 21 -107 -2 -31 -19 -31 -19 -36 0 -6 22 -32 26 -40 5z
m146 -37 c31 -16 37 -28 37 -71 0 -66 -56 -99 -107 -63 -43 30 -37 116 9 135
31 12 36 12 61 -1z"/>
<path d="M2854 547 c-2 -7 -3 -60 -2 -118 3 -96 4 -104 23 -104 18 0 21 8 25
73 4 62 9 77 29 93 13 10 29 19 36 19 15 0 24 19 18 38 -6 16 -34 15 -60 -3
-19 -13 -22 -13 -27 0 -7 19 -35 20 -42 2z"/>
<path d="M3015 548 c-3 -8 -4 -61 -3 -119 3 -96 4 -104 23 -104 19 0 20 7 20
115 0 101 -2 115 -18 118 -9 2 -19 -3 -22 -10z"/>
<path d="M3102 552 c-9 -6 -12 -37 -10 -118 3 -104 4 -109 26 -112 21 -3 22 0
22 70 0 86 16 118 59 118 41 0 50 -17 53 -105 3 -72 5 -80 23 -80 18 0 20 8
23 93 3 87 1 94 -22 117 -29 29 -71 32 -105 9 -22 -16 -24 -16 -33 0 -10 18
-17 19 -36 8z"/>
<path d="M3384 549 c-32 -16 -54 -62 -54 -114 0 -40 5 -52 34 -81 39 -39 85
-45 124 -18 34 23 38 9 7 -22 -23 -23 -32 -26 -68 -21 -23 3 -52 9 -64 13 -19
5 -23 2 -23 -14 0 -39 113 -57 171 -26 17 8 37 30 45 49 16 38 19 211 5 234
-11 18 -41 7 -41 -14 0 -14 -4 -13 -26 4 -28 22 -75 26 -110 10z m107 -48 c18
-14 24 -29 24 -61 0 -71 -63 -104 -112 -58 -33 31 -32 90 3 117 33 26 55 26
85 2z"/>
</g>
</svg>
